<svg enable-background="new 0 0 512.019 512.019" viewBox="0 0 512.019 512.019" xmlns="http://www.w3.org/2000/svg"><path d="m64 320.009c-35.346 0-64-28.654-64-64s28.654-64 64-64 64 28.654 64 64c0 5.891-4.776 10.667-10.667 10.667h-94.656c4.865 18.842 21.863 32.005 41.323 32 27.093 0 34.624-4.096 44.928-17.259 3.635-4.636 10.34-5.448 14.976-1.813s5.448 10.34 1.813 14.976c-14.326 19.187-38.033 28.955-61.717 25.429zm-41.323-74.666h82.645c-5.891-22.816-29.162-36.537-51.978-30.646-15.029 3.88-26.766 15.617-30.646 30.646z" fill="#f44336"/><path d="m192 320.009c-35.346 0-64-28.654-64-64s28.654-64 64-64 64 28.654 64 64-28.654 64-64 64zm0-106.666c-23.564 0-42.667 19.103-42.667 42.667s19.103 42.667 42.667 42.667 42.667-19.103 42.667-42.667-19.103-42.667-42.667-42.667z" fill="#2196f3"/><path d="m138.667 320.009c-5.891 0-10.667-4.776-10.667-10.667v-149.333c0-5.891 4.776-10.667 10.667-10.667s10.667 4.776 10.667 10.667v149.333c-.001 5.892-4.776 10.667-10.667 10.667z" fill="#2196f3"/><path d="m373.333 320.009c-5.891 0-10.667-4.776-10.667-10.667v-64c0-21.099-29.867-32-42.667-32-13.28-1.865-26.394 4.361-33.344 15.829-2.907 5.124-9.418 6.92-14.541 4.013-5.045-2.863-6.877-9.232-4.125-14.338 10.657-18.284 30.934-28.747 52.011-26.837 22.976 0 64 17.813 64 53.333v64c0 5.892-4.776 10.667-10.667 10.667z" fill="#ffc107"/><path d="m309.333 320.009c-46.4 0-53.333-26.731-53.333-42.667-.04-7.061 2.867-13.819 8.021-18.645 16.192-15.552 53.333-15.445 93.355-13.824 6.272.256 11.755.469 15.957.469 5.891-.007 10.672 4.764 10.679 10.655.002 1.885-.495 3.737-1.441 5.367 1.523 2.634 1.849 5.793.896 8.683-11.654 30.659-41.341 50.667-74.134 49.962zm19.712-54.506c-17.207-1.857-34.591 1.097-50.219 8.533-.991.805-1.544 2.031-1.493 3.307 0 10.539 3.797 21.333 32 21.333 22.409.733 43.096-11.965 52.587-32.277l-5.397-.235c-7.254-.256-17.152-.661-27.478-.661z" fill="#ffc107"/><g fill="#4caf50"><path d="m437.333 309.343c-3.568-.002-6.898-1.787-8.875-4.757l-64-96c-3.27-4.901-1.947-11.525 2.955-14.795s11.525-1.947 14.795 2.955l64 96c3.264 4.904 1.934 11.526-2.971 14.79-1.749 1.164-3.803 1.785-5.904 1.786z"/><path d="m416 362.676c-5.891.01-10.675-4.758-10.685-10.649-.003-1.862.481-3.692 1.405-5.309l85.333-149.333c2.946-5.119 9.483-6.882 14.603-3.936 5.119 2.946 6.882 9.483 3.936 14.603l-85.333 149.333c-1.92 3.291-5.449 5.307-9.259 5.291z"/></g></svg>